<svg xmlns="http://www.w3.org/2000/svg" width="1180" height="520" viewBox="0 0 1180 520">
<rect width="100%" height="100%" fill="white"/>
<text x="32" y="38" font-family="Arial" font-size="22" font-weight="700">G3 frozen subset: confidence threshold tradeoffs</text>
<text x="32" y="66" font-family="Arial" font-size="14" fill="#555">Prediction-level risk-coverage curves from exported TP/FP/FN tables.</text>
<text x="82" y="68" font-family="Arial" font-size="15" font-weight="700">Ordinary mixed-domain frozen subset</text>
<rect x="82" y="86" width="440" height="300" fill="#fafafa" stroke="#ddd"/>
<line x1="82.0" x2="82.0" y1="86" y2="386" stroke="#eee"/>
<line x1="82" x2="522" y1="86.0" y2="86.0" stroke="#eee"/>
<line x1="170.0" x2="170.0" y1="86" y2="386" stroke="#eee"/>
<line x1="82" x2="522" y1="146.0" y2="146.0" stroke="#eee"/>
<line x1="258.0" x2="258.0" y1="86" y2="386" stroke="#eee"/>
<line x1="82" x2="522" y1="206.0" y2="206.0" stroke="#eee"/>
<line x1="346.0" x2="346.0" y1="86" y2="386" stroke="#eee"/>
<line x1="82" x2="522" y1="266.0" y2="266.0" stroke="#eee"/>
<line x1="434.0" x2="434.0" y1="86" y2="386" stroke="#eee"/>
<line x1="82" x2="522" y1="326.0" y2="326.0" stroke="#eee"/>
<line x1="522.0" x2="522.0" y1="86" y2="386" stroke="#eee"/>
<line x1="82" x2="522" y1="386.0" y2="386.0" stroke="#eee"/>
<text x="82" y="420" font-family="Arial" font-size="12" fill="#555">Prediction coverage</text>
<text x="34" y="98" font-family="Arial" font-size="12" fill="#555">Value</text>
<path d="M 522.0 384.4 L 522.0 384.4 L 201.9 380.6 L 137.7 375.9 L 101.1 364.0 L 90.0 347.8 L 85.1 327.4 L 83.2 293.8 L 82.6 289.0 L 82.2 271.0" fill="none" stroke="#4f7f76" stroke-width="3"/>
<circle cx="522.0" cy="384.4" r="3" fill="#4f7f76"/>
<circle cx="522.0" cy="384.4" r="3" fill="#4f7f76"/>
<circle cx="201.9" cy="380.6" r="3" fill="#4f7f76"/>
<circle cx="137.7" cy="375.9" r="3" fill="#4f7f76"/>
<circle cx="101.1" cy="364.0" r="3" fill="#4f7f76"/>
<circle cx="90.0" cy="347.8" r="3" fill="#4f7f76"/>
<circle cx="85.1" cy="327.4" r="3" fill="#4f7f76"/>
<circle cx="83.2" cy="293.8" r="3" fill="#4f7f76"/>
<circle cx="82.6" cy="289.0" r="3" fill="#4f7f76"/>
<circle cx="82.2" cy="271.0" r="3" fill="#4f7f76"/>
<rect x="332" y="434" width="12" height="12" fill="#4f7f76"/>
<text x="350" y="444" font-family="Arial" font-size="12" fill="#333">Precision</text>
<path d="M 522.0 210.6 L 522.0 210.6 L 201.9 227.7 L 137.7 248.2 L 101.1 282.9 L 90.0 310.9 L 85.1 341.0 L 83.2 359.8 L 82.6 372.1 L 82.2 381.1" fill="none" stroke="#9b6a3d" stroke-width="3"/>
<circle cx="522.0" cy="210.6" r="3" fill="#9b6a3d"/>
<circle cx="522.0" cy="210.6" r="3" fill="#9b6a3d"/>
<circle cx="201.9" cy="227.7" r="3" fill="#9b6a3d"/>
<circle cx="137.7" cy="248.2" r="3" fill="#9b6a3d"/>
<circle cx="101.1" cy="282.9" r="3" fill="#9b6a3d"/>
<circle cx="90.0" cy="310.9" r="3" fill="#9b6a3d"/>
<circle cx="85.1" cy="341.0" r="3" fill="#9b6a3d"/>
<circle cx="83.2" cy="359.8" r="3" fill="#9b6a3d"/>
<circle cx="82.6" cy="372.1" r="3" fill="#9b6a3d"/>
<circle cx="82.2" cy="381.1" r="3" fill="#9b6a3d"/>
<rect x="332" y="454" width="12" height="12" fill="#9b6a3d"/>
<text x="350" y="464" font-family="Arial" font-size="12" fill="#333">GT recall</text>
<text x="608" y="68" font-family="Arial" font-size="15" font-weight="700">LODO held-out Norway frozen subset</text>
<rect x="608" y="86" width="440" height="300" fill="#fafafa" stroke="#ddd"/>
<line x1="608.0" x2="608.0" y1="86" y2="386" stroke="#eee"/>
<line x1="608" x2="1048" y1="86.0" y2="86.0" stroke="#eee"/>
<line x1="696.0" x2="696.0" y1="86" y2="386" stroke="#eee"/>
<line x1="608" x2="1048" y1="146.0" y2="146.0" stroke="#eee"/>
<line x1="784.0" x2="784.0" y1="86" y2="386" stroke="#eee"/>
<line x1="608" x2="1048" y1="206.0" y2="206.0" stroke="#eee"/>
<line x1="872.0" x2="872.0" y1="86" y2="386" stroke="#eee"/>
<line x1="608" x2="1048" y1="266.0" y2="266.0" stroke="#eee"/>
<line x1="960.0" x2="960.0" y1="86" y2="386" stroke="#eee"/>
<line x1="608" x2="1048" y1="326.0" y2="326.0" stroke="#eee"/>
<line x1="1048.0" x2="1048.0" y1="86" y2="386" stroke="#eee"/>
<line x1="608" x2="1048" y1="386.0" y2="386.0" stroke="#eee"/>
<text x="608" y="420" font-family="Arial" font-size="12" fill="#555">Prediction coverage</text>
<text x="560" y="98" font-family="Arial" font-size="12" fill="#555">Value</text>
<path d="M 1048.0 384.9 L 1048.0 384.9 L 696.0 381.9 L 652.9 379.3 L 622.9 376.2 L 613.9 369.9 L 610.3 359.4 L 608.5 352.7 L 608.2 300.3 L 608.0 386.0" fill="none" stroke="#4f7f76" stroke-width="3"/>
<circle cx="1048.0" cy="384.9" r="3" fill="#4f7f76"/>
<circle cx="1048.0" cy="384.9" r="3" fill="#4f7f76"/>
<circle cx="696.0" cy="381.9" r="3" fill="#4f7f76"/>
<circle cx="652.9" cy="379.3" r="3" fill="#4f7f76"/>
<circle cx="622.9" cy="376.2" r="3" fill="#4f7f76"/>
<circle cx="613.9" cy="369.9" r="3" fill="#4f7f76"/>
<circle cx="610.3" cy="359.4" r="3" fill="#4f7f76"/>
<circle cx="608.5" cy="352.7" r="3" fill="#4f7f76"/>
<circle cx="608.2" cy="300.3" r="3" fill="#4f7f76"/>
<circle cx="608.0" cy="386.0" r="3" fill="#4f7f76"/>
<rect x="858" y="434" width="12" height="12" fill="#4f7f76"/>
<text x="876" y="444" font-family="Arial" font-size="12" fill="#333">Precision</text>
<path d="M 1048.0 332.5 L 1048.0 332.5 L 696.0 347.2 L 652.9 353.7 L 622.9 370.3 L 613.9 375.8 L 610.3 379.5 L 608.5 384.2 L 608.2 384.2 L 608.0 386.0" fill="none" stroke="#9b6a3d" stroke-width="3"/>
<circle cx="1048.0" cy="332.5" r="3" fill="#9b6a3d"/>
<circle cx="1048.0" cy="332.5" r="3" fill="#9b6a3d"/>
<circle cx="696.0" cy="347.2" r="3" fill="#9b6a3d"/>
<circle cx="652.9" cy="353.7" r="3" fill="#9b6a3d"/>
<circle cx="622.9" cy="370.3" r="3" fill="#9b6a3d"/>
<circle cx="613.9" cy="375.8" r="3" fill="#9b6a3d"/>
<circle cx="610.3" cy="379.5" r="3" fill="#9b6a3d"/>
<circle cx="608.5" cy="384.2" r="3" fill="#9b6a3d"/>
<circle cx="608.2" cy="384.2" r="3" fill="#9b6a3d"/>
<circle cx="608.0" cy="386.0" r="3" fill="#9b6a3d"/>
<rect x="858" y="454" width="12" height="12" fill="#9b6a3d"/>
<text x="876" y="464" font-family="Arial" font-size="12" fill="#333">GT recall</text>
<text x="32" y="474" font-family="Arial" font-size="13" fill="#666">Raising confidence thresholds improves accepted-prediction precision but reduces coverage and ground-truth recall. This supports an audit/tradeoff framing, not an operational threshold claim.</text>
</svg>