<svg xmlns="http://www.w3.org/2000/svg" width="1120" height="572" viewBox="0 0 1120 572">
<rect width="100%" height="100%" fill="white"/>
<text x="32" y="38" font-family="Arial" font-size="22" font-weight="700">G3 frozen subset LODO matrix</text>
<text x="32" y="66" font-family="Arial" font-size="14" fill="#555">yolov8n.pt, 4 CPU epochs, image size 320, 960 train images and 80 held-out validation images per domain. Pilot only.</text>
<text x="190" y="96" font-family="Arial" font-size="14" font-weight="700" fill="#222">Recall</text>
<line x1="190" x2="440" y1="104" y2="104" stroke="#ddd"/>
<text x="474" y="96" font-family="Arial" font-size="14" font-weight="700" fill="#222">mAP50</text>
<line x1="474" x2="724" y1="104" y2="104" stroke="#ddd"/>
<text x="758" y="96" font-family="Arial" font-size="14" font-weight="700" fill="#222">mAP50-95</text>
<line x1="758" x2="1008" y1="104" y2="104" stroke="#ddd"/>
<text x="32" y="134" font-family="Arial" font-size="14" fill="#222">China_Drone</text>
<rect x="190" y="117" width="186" height="22" fill="#f1f3f5"/>
<rect x="190" y="117" width="109" height="22" fill="#2f6f9f"/>
<text x="386" y="133" font-family="Arial" font-size="13" fill="#222">0.0884</text>
<rect x="474" y="117" width="186" height="22" fill="#f1f3f5"/>
<rect x="474" y="117" width="163" height="22" fill="#5b8f3a"/>
<text x="670" y="133" font-family="Arial" font-size="13" fill="#222">0.0699</text>
<rect x="758" y="117" width="186" height="22" fill="#f1f3f5"/>
<rect x="758" y="117" width="147" height="22" fill="#b7652b"/>
<text x="954" y="133" font-family="Arial" font-size="13" fill="#222">0.0237</text>
<text x="32" y="188" font-family="Arial" font-size="14" fill="#222">China_MotorBike</text>
<rect x="190" y="171" width="186" height="22" fill="#f1f3f5"/>
<rect x="190" y="171" width="152" height="22" fill="#2f6f9f"/>
<text x="386" y="187" font-family="Arial" font-size="13" fill="#222">0.1229</text>
<rect x="474" y="171" width="186" height="22" fill="#f1f3f5"/>
<rect x="474" y="171" width="153" height="22" fill="#5b8f3a"/>
<text x="670" y="187" font-family="Arial" font-size="13" fill="#222">0.0657</text>
<rect x="758" y="171" width="186" height="22" fill="#f1f3f5"/>
<rect x="758" y="171" width="119" height="22" fill="#b7652b"/>
<text x="954" y="187" font-family="Arial" font-size="13" fill="#222">0.0192</text>
<text x="32" y="242" font-family="Arial" font-size="14" fill="#222">Czech_Republic</text>
<rect x="190" y="225" width="186" height="22" fill="#f1f3f5"/>
<rect x="190" y="225" width="132" height="22" fill="#2f6f9f"/>
<text x="386" y="241" font-family="Arial" font-size="13" fill="#222">0.1071</text>
<rect x="474" y="225" width="186" height="22" fill="#f1f3f5"/>
<rect x="474" y="225" width="126" height="22" fill="#5b8f3a"/>
<text x="670" y="241" font-family="Arial" font-size="13" fill="#222">0.0542</text>
<rect x="758" y="225" width="186" height="22" fill="#f1f3f5"/>
<rect x="758" y="225" width="135" height="22" fill="#b7652b"/>
<text x="954" y="241" font-family="Arial" font-size="13" fill="#222">0.0217</text>
<text x="32" y="296" font-family="Arial" font-size="14" fill="#222">India</text>
<rect x="190" y="279" width="186" height="22" fill="#f1f3f5"/>
<rect x="190" y="279" width="88" height="22" fill="#2f6f9f"/>
<text x="386" y="295" font-family="Arial" font-size="13" fill="#222">0.0716</text>
<rect x="474" y="279" width="186" height="22" fill="#f1f3f5"/>
<rect x="474" y="279" width="140" height="22" fill="#5b8f3a"/>
<text x="670" y="295" font-family="Arial" font-size="13" fill="#222">0.0601</text>
<rect x="758" y="279" width="186" height="22" fill="#f1f3f5"/>
<rect x="758" y="279" width="116" height="22" fill="#b7652b"/>
<text x="954" y="295" font-family="Arial" font-size="13" fill="#222">0.0187</text>
<text x="32" y="350" font-family="Arial" font-size="14" fill="#222">Japan</text>
<rect x="190" y="333" width="186" height="22" fill="#f1f3f5"/>
<rect x="190" y="333" width="186" height="22" fill="#2f6f9f"/>
<text x="386" y="349" font-family="Arial" font-size="13" fill="#222">0.1502</text>
<rect x="474" y="333" width="186" height="22" fill="#f1f3f5"/>
<rect x="474" y="333" width="186" height="22" fill="#5b8f3a"/>
<text x="670" y="349" font-family="Arial" font-size="13" fill="#222">0.0797</text>
<rect x="758" y="333" width="186" height="22" fill="#f1f3f5"/>
<rect x="758" y="333" width="167" height="22" fill="#b7652b"/>
<text x="954" y="349" font-family="Arial" font-size="13" fill="#222">0.0269</text>
<text x="32" y="404" font-family="Arial" font-size="14" fill="#222">Norway</text>
<rect x="190" y="387" width="186" height="22" fill="#f1f3f5"/>
<rect x="190" y="387" width="28" height="22" fill="#2f6f9f"/>
<text x="386" y="403" font-family="Arial" font-size="13" fill="#222">0.0231</text>
<rect x="474" y="387" width="186" height="22" fill="#f1f3f5"/>
<rect x="474" y="387" width="28" height="22" fill="#5b8f3a"/>
<text x="670" y="403" font-family="Arial" font-size="13" fill="#222">0.0120</text>
<rect x="758" y="387" width="186" height="22" fill="#f1f3f5"/>
<rect x="758" y="387" width="25" height="22" fill="#b7652b"/>
<text x="954" y="403" font-family="Arial" font-size="13" fill="#222">0.0042</text>
<text x="32" y="458" font-family="Arial" font-size="14" fill="#222">United_States</text>
<rect x="190" y="441" width="186" height="22" fill="#f1f3f5"/>
<rect x="190" y="441" width="125" height="22" fill="#2f6f9f"/>
<text x="386" y="457" font-family="Arial" font-size="13" fill="#222">0.1016</text>
<rect x="474" y="441" width="186" height="22" fill="#f1f3f5"/>
<rect x="474" y="441" width="158" height="22" fill="#5b8f3a"/>
<text x="670" y="457" font-family="Arial" font-size="13" fill="#222">0.0680</text>
<rect x="758" y="441" width="186" height="22" fill="#f1f3f5"/>
<rect x="758" y="441" width="186" height="22" fill="#b7652b"/>
<text x="954" y="457" font-family="Arial" font-size="13" fill="#222">0.0299</text>
<text x="32" y="538" font-family="Arial" font-size="13" fill="#666">Interpretation boundary: this figure supports go/no-go decisions only; it is not final model performance.</text>
</svg>